<?xml version="1.0" encoding="UTF-8" standalone="no"?>
<svg
   xmlns:dc="http://purl.org/dc/elements/1.1/"
   xmlns:cc="http://creativecommons.org/ns#"
   xmlns:rdf="http://www.w3.org/1999/02/22-rdf-syntax-ns#"
   xmlns:svg="http://www.w3.org/2000/svg"
   xmlns="http://www.w3.org/2000/svg"
   xmlns:sodipodi="http://sodipodi.sourceforge.net/DTD/sodipodi-0.dtd"
   xmlns:inkscape="http://www.inkscape.org/namespaces/inkscape"
   version="1.1"
   x="0px"
   y="0px"
   width="100"
   height="76"
   viewBox="0 0 100 76"
   id="svg7"
   sodipodi:docname="hand.svg"
   inkscape:version="1.0.1 (3bc2e813f5, 2020-09-07)">
  <metadata
     id="metadata11">
    <rdf:RDF>
      <cc:Work
         rdf:about="">
        <dc:format>image/svg+xml</dc:format>
        <dc:type
           rdf:resource="http://purl.org/dc/dcmitype/StillImage" />
        <dc:title></dc:title>
      </cc:Work>
    </rdf:RDF>
  </metadata>
  <sodipodi:namedview
     pagecolor="#ffffff"
     bordercolor="#666666"
     borderopacity="1"
     objecttolerance="10"
     gridtolerance="10"
     guidetolerance="10"
     inkscape:pageopacity="0"
     inkscape:pageshadow="2"
     inkscape:window-width="2400"
     inkscape:window-height="1321"
     id="namedview9"
     showgrid="false"
     inkscape:zoom="5.257655"
     inkscape:cx="71.798247"
     inkscape:cy="51.00079"
     inkscape:window-x="2391"
     inkscape:window-y="-9"
     inkscape:window-maximized="1"
     inkscape:current-layer="svg7"
     inkscape:document-rotation="0" />
  <g
     id="Layer_1"
     transform="translate(50.022301,38.518182)">
    <path
       d="M 49.530744,7.6529425 C 49.197474,7.0523949 48.775885,6.5975546 48.265976,6.2884234 47.683204,5.9350954 46.384614,5.5711714 44.370212,5.1967058 42.297293,4.8365282 38.816785,5.112942 33.850764,4.841753 28.884723,4.5706232 25.998502,4.7323372 22.244593,4.5631535 c 0,0 -5.766302,-0.025655 -5.933405,-0.043174 C 16.144099,4.5024025 15.564855,3.9800947 15.549576,3.7280066 15.534306,3.475918 15.901779,3.3692914 15.901779,3.3692914 l 4.833278,-0.472604 c 3.69659,-0.3614731 7.818425,-0.4900054 12.361719,-0.425314 4.528973,0.0062 7.582688,-0.060156 9.161177,-0.1989643 1.578471,-0.1388603 2.631553,-0.3969965 3.159241,-0.7744072 0.527668,-0.377463 0.939487,-0.97453379 1.235436,-1.79131929 0.237436,-0.80244301 0.131587,-1.61376901 -0.317543,-2.43397801 -0.449131,-0.82021 -1.03793,-1.451151 -1.766377,-1.892773 -0.801292,-0.485769 -2.048544,-0.89325 -3.741748,-1.2224456 -1.693208,-0.329196 -4.109981,-0.574057 -7.250313,-0.734587 -3.140342,-0.160526 -6.865741,-0.177639 -11.176144,-0.05136 -4.38328,0.08215 -6.934382,-0.200232 -9.757653,-0.04808 C 10.522588,-6.688051 8.4193036,-6.937072 5.8651116,-7.145734 3.396915,-7.347352 1.7760619,-7.469144 -0.00318095,-8.14937 -1.8552694,-8.873742 -2.9661043,-9.120551 -4.1316337,-9.827212 c -1.1798478,-0.765097 -1.6660306,-1.283994 -1.7079175,-1.707905 -0.041901,-0.423851 -0.7918647,-1.554516 -0.3215373,-2.16593 0.3974696,-0.65561 1.6868893,-2.229599 4.868465,-4.684026 3.1815868,-2.454373 5.8683375,-3.490897 6.7504533,-4.699485 0.8821338,-1.208536 1.8738308,-2.510347 2.3906098,-3.691328 0.51677,-1.181034 0.725793,-2.569692 0.891512,-3.664676 0.151403,-1.153419 -0.127158,-2.453586 -0.37096,-3.448187 -0.2438,-0.9946 -0.649615,-1.458002 -1.115365,-1.840015 -0.524267,-0.367613 -1.034393,-0.388878 -1.429577,-0.230009 -0.4095273,0.100385 -1.1437756,0.43143 -2.4056136,1.608983 -1.2618202,1.177604 -3.65131804,2.941692 -7.1684237,5.292305 -3.5756308,2.364903 -4.9441921,3.113025 -5.7787207,3.503648 -0.9073926,0.346428 -2.8032956,1.193064 -3.4022666,1.329432 -1.02314,0.232902 -2.739896,0.870423 -4.539176,1.373472 -1.857802,0.517447 -3.183867,1.846825 -3.770049,2.238631 -0.600501,0.333258 -1.464245,0.759444 -5.206758,4.467734 -3.81534,3.664082 -6.836602,6.523006 -8.59378,7.882023 -2.148684,1.661787 -2.855418,2.017451 -4.521616,2.6646586 -2.099127,0.50559 -3.784717,0.760451 -6.047424,1.091857 -1.543827,0.226641 -2.579693,0.164791 -3.414445,1.357408 0.08712,6.4173547 1.322534,8.5820626 1.244487,13.5499094 -0.232662,4.393895 -2.781692,10.399328 -1.920252,12.480993 0.270998,0.383963 0.460043,0.635778 1.410745,0.740029 1.704512,-0.179539 3.55794,-0.503037 5.574645,-0.62526 2.002325,-0.180755 4.007279,-0.350917 6.224735,0.345951 2.203129,0.638324 4.828409,1.607291 7.875844,2.906956 2.988946,1.313946 5.63956,2.157619 7.974029,2.825804 2.26161,0.623988 5.228656,1.318199 8.878921,1.787911 3.5774009,0.425515 6.8562575,0.645063 9.8365599,0.65876 2.92179977,0.02804 6.7657362,0.528435 13.3188931,1.961067 6.494626,1.446976 10.130297,1.923004 11.649119,2.046884 1.518841,0.123815 3.778686,0.313391 4.480749,0.141294 0.64355,-0.157749 1.330555,-0.282547 1.830744,-1.025167 0.441642,-0.72844 0.528103,-1.117562 0.486216,-1.541473 -0.04187,-0.423858 -0.210919,-0.934341 -0.66436,-1.157239 -0.328537,-0.428115 -4.946882,-2.816882 -12.304616,-4.929651 0,0 -8.3591034,-2.773623 -8.7993614,-2.95676 -0.440266,-0.183191 -3.2618353,-1.969212 0.302671,-2.133996 2.3763374,-0.109856 2.3763374,-0.109856 0,0 0.9945685,-0.243793 6.3767434,0.721847 16.4797574,2.214566 0,0 12.467551,1.638909 14.089327,1.613493 1.621809,-0.02543 2.159732,-0.229068 2.159732,-0.229068 0.673358,-0.289059 0.938943,-0.639514 1.382002,-1.113474 0.250658,-0.495564 0.464394,-1.118326 0.526319,-1.877749 -0.01092,-0.803623 -0.25781,-1.375812 -0.475209,-1.756644 -0.290247,-0.425029 -0.455622,-0.62467 -0.892698,-0.889653 -1.22675,-0.487646 -1.679662,-0.594723 -2.707443,-0.801398 -1.416146,-0.21105 -8.886007,-1.1746 -14.606897,-2.501176 -5.720883,-1.32652 -5.645035,-1.148877 -7.826024,-1.696858 0,0 -2.683831,-0.540954 -3.140691,-0.69682 -0.456833,-0.155872 -1.701615,-1.059356 0.422415,-1.312938 1.416035,-0.169039 1.416035,-0.169039 0,0 0.643548,-0.157749 3.362689,-0.124537 7.89164,-0.118332 4.514636,-0.05229 9.605747,0.09516 15.725025,0.119436 0,0 6.190732,0.343328 7.900277,0.296398 1.709544,-0.04693 2.807361,-0.502093 2.807361,-0.502093 1.407527,-1.089262 1.628107,-1.327938 1.673286,-2.8514803 0.04517,-1.523541 -0.252996,-2.1706547 -0.252996,-2.1706547 z"
       stroke="#000000"
       stroke-width="0.278886"
       fill="#f9ca24"
       id="path833"
       sodipodi:nodetypes="cscscsscscsscssssccsccscssscsccsccscccscccccccccccccsscsccssccsccccccscsscccscsc" />
  </g>
  <defs
     id="defs5" />
</svg>
