<?xml version="1.0" encoding="UTF-8" standalone="no"?>
<svg
   xmlns:dc="http://purl.org/dc/elements/1.1/"
   xmlns:cc="http://creativecommons.org/ns#"
   xmlns:rdf="http://www.w3.org/1999/02/22-rdf-syntax-ns#"
   xmlns:svg="http://www.w3.org/2000/svg"
   xmlns="http://www.w3.org/2000/svg"
   xmlns:sodipodi="http://sodipodi.sourceforge.net/DTD/sodipodi-0.dtd"
   xmlns:inkscape="http://www.inkscape.org/namespaces/inkscape"
   version="1.1"
   id="Icon"
   x="0px"
   y="0px"
   viewBox="0 0 48 48"
   enable-background="new 0 0 48 48"
   xml:space="preserve"
   sodipodi:docname="webicon-linkedin.svg"
   inkscape:version="1.0.1 (3bc2e813f5, 2020-09-07)"><metadata
   id="metadata26"><rdf:RDF><cc:Work
       rdf:about=""><dc:format>image/svg+xml</dc:format><dc:type
         rdf:resource="http://purl.org/dc/dcmitype/StillImage" /></cc:Work></rdf:RDF></metadata><defs
   id="defs24" /><sodipodi:namedview
   pagecolor="#ffffff"
   bordercolor="#666666"
   borderopacity="1"
   objecttolerance="10"
   gridtolerance="10"
   guidetolerance="10"
   inkscape:pageopacity="0"
   inkscape:pageshadow="2"
   inkscape:window-width="1920"
   inkscape:window-height="1051"
   id="namedview22"
   showgrid="false"
   inkscape:zoom="18.333333"
   inkscape:cx="2.9999998"
   inkscape:cy="24"
   inkscape:window-x="-9"
   inkscape:window-y="445"
   inkscape:window-maximized="1"
   inkscape:current-layer="Icon"
   inkscape:document-rotation="0" />
<linearGradient
   id="SVGID_1_"
   gradientUnits="userSpaceOnUse"
   x1="23.9995"
   y1="0"
   x2="23.9995"
   y2="48.0005">
	<stop
   offset="0"
   style="stop-color:#41B8D0"
   id="stop2" />
	<stop
   offset="1"
   style="stop-color:#256FBB"
   id="stop4" />
</linearGradient>
<path
   fill-rule="evenodd"
   clip-rule="evenodd"
   fill="url(#SVGID_1_)"
   d="M48,42c0,3.313-2.687,6-6,6H6c-3.313,0-6-2.687-6-6V6  c0-3.313,2.687-6,6-6h36c3.313,0,6,2.687,6,6V42z"
   id="path7"
   style="fill:#0a66c2;fill-opacity:1" />

<g
   id="g19">
	<g
   id="g17">
		<path
   fill="#FFFFFF"
   d="M15.731,11.633c-1.608,0-2.658,1.083-2.625,2.527c-0.033,1.378,1.018,2.494,2.593,2.494    c1.641,0,2.691-1.116,2.691-2.494C18.357,12.716,17.339,11.633,15.731,11.633z M13.237,35.557h4.988V18.508h-4.988V35.557z     M31.712,18.748c-1.595,0-3.222-0.329-4.956,2.36h-0.099l-0.087-2.599h-4.417c0.065,1.411,0.074,3.518,0.074,5.52v11.529h4.988    v-9.854c0-0.46,0.065-0.919,0.196-1.248c0.328-0.919,1.149-1.871,2.527-1.871c1.805,0,2.527,1.411,2.527,3.479v9.494h4.988V25.439    C37.455,20.713,34.993,18.748,31.712,18.748z"
   id="path15" />
	</g>
</g>
</svg>
